<svg xmlns="http://www.w3.org/2000/svg" width="24" height="24" viewBox="0 0 24 24">
  <g id="icon_scan_page" transform="translate(0.295)">
    <path id="document_scanner_24dp_1F1F1F_FILL0_wght500_GRAD0_opsz24" d="M72.59-921.828v-5.582h5.582v2.345H74.934v3.238Zm19.51,0v-3.238H88.862v-2.345h5.582v5.582ZM72.59-903.41v-5.582h2.344v3.238h3.238v2.344Zm16.272,0v-2.344H92.1v-3.238h2.344v5.582Zm-10.51-5.762H88.683v-12.477H78.352Zm0,2.441a2.348,2.348,0,0,1-1.721-.72,2.348,2.348,0,0,1-.72-1.721v-12.477a2.348,2.348,0,0,1,.72-1.721,2.348,2.348,0,0,1,1.721-.72H88.683a2.348,2.348,0,0,1,1.721.72,2.348,2.348,0,0,1,.72,1.721v12.477a2.348,2.348,0,0,1-.72,1.721,2.348,2.348,0,0,1-1.721.72Zm1.909-10.786h6.514v-2.222H80.26Zm0,3.219h6.514v-2.222H80.26Zm0,3.218h6.514V-913.3H80.26Zm-1.909,1.909v0Z" transform="translate(-71.633 927.41)" fill="#9a9c9c"/>
    <rect id="container_icon" width="24" height="24" transform="translate(-0.295)" fill="none"/>
  </g>
</svg>
